<?xml version="1.0" encoding="UTF-8" standalone="no"?>
<svg
   xmlns:dc="http://purl.org/dc/elements/1.1/"
   xmlns:cc="http://creativecommons.org/ns#"
   xmlns:rdf="http://www.w3.org/1999/02/22-rdf-syntax-ns#"
   xmlns:svg="http://www.w3.org/2000/svg"
   xmlns="http://www.w3.org/2000/svg"
   xmlns:sodipodi="http://sodipodi.sourceforge.net/DTD/sodipodi-0.dtd"
   xmlns:inkscape="http://www.inkscape.org/namespaces/inkscape"
   width="24"
   height="24"
   fill-rule="evenodd"
   clip-rule="evenodd"
   version="1.1"
   id="svg4"
   sodipodi:docname="arrow-up.svg"
   inkscape:version="0.92.4 (5da689c313, 2019-01-14)">
  <metadata
     id="metadata10">
    <rdf:RDF>
      <cc:Work
         rdf:about="">
        <dc:format>image/svg+xml</dc:format>
        <dc:type
           rdf:resource="http://purl.org/dc/dcmitype/StillImage" />
      </cc:Work>
    </rdf:RDF>
  </metadata>
  <defs
     id="defs8" />
  <sodipodi:namedview
     pagecolor="#ffffff"
     bordercolor="#666666"
     borderopacity="1"
     objecttolerance="10"
     gridtolerance="10"
     guidetolerance="10"
     inkscape:pageopacity="0"
     inkscape:pageshadow="2"
     inkscape:window-width="2560"
     inkscape:window-height="1377"
     id="namedview6"
     showgrid="false"
     inkscape:zoom="9.8333333"
     inkscape:cx="12"
     inkscape:cy="12"
     inkscape:window-x="-8"
     inkscape:window-y="-8"
     inkscape:window-maximized="1"
     inkscape:current-layer="svg4" />
  <path
     d="M23.245 20l-11.245-14.374-11.219 14.374-.781-.619 12-15.381 12 15.391-.755.609z"
     id="path2" />
  <path
     style="fill:#ffffff;stroke-width:0.10169491"
     d="M 0.43267094,19.662712 C 0.25272368,19.536864 0.11724151,19.396091 0.13159945,19.349883 0.18415079,19.180757 11.9512,4.1360246 12.014137,4.1574935 c 0.03574,0.012192 2.684735,3.3857268 5.886652,7.4967435 3.201918,4.111017 5.865567,7.530248 5.91922,7.598291 0.06788,0.08609 0.0096,0.201094 -0.191737,0.378143 -0.159109,0.139935 -0.31458,0.255873 -0.345493,0.257641 -0.03091,0.0018 -2.561807,-3.200176 -5.624213,-7.115431 -3.062405,-3.9152539 -5.608021,-7.1186437 -5.656925,-7.1186437 -0.0489,0 -2.5888206,3.2033898 -5.6442604,7.1186437 -3.0554398,3.915255 -5.56483728,7.118644 -5.57643893,7.118644 -0.0116016,0 -0.16832346,-0.102966 -0.34827073,-0.228813 z"
     id="path16"
     inkscape:connector-curvature="0" />
</svg>
