<?xml version="1.0" encoding="UTF-8" standalone="no"?>
<svg
   xmlns:dc="http://purl.org/dc/elements/1.1/"
   xmlns:cc="http://creativecommons.org/ns#"
   xmlns:rdf="http://www.w3.org/1999/02/22-rdf-syntax-ns#"
   xmlns:svg="http://www.w3.org/2000/svg"
   xmlns="http://www.w3.org/2000/svg"
   xmlns:sodipodi="http://sodipodi.sourceforge.net/DTD/sodipodi-0.dtd"
   xmlns:inkscape="http://www.inkscape.org/namespaces/inkscape"
   width="24"
   height="24"
   fill-rule="evenodd"
   clip-rule="evenodd"
   version="1.1"
   id="svg4"
   sodipodi:docname="arrow-down.svg"
   inkscape:version="0.92.4 (5da689c313, 2019-01-14)">
  <metadata
     id="metadata10">
    <rdf:RDF>
      <cc:Work
         rdf:about="">
        <dc:format>image/svg+xml</dc:format>
        <dc:type
           rdf:resource="http://purl.org/dc/dcmitype/StillImage" />
        <dc:title></dc:title>
      </cc:Work>
    </rdf:RDF>
  </metadata>
  <defs
     id="defs8" />
  <sodipodi:namedview
     pagecolor="#ffffff"
     bordercolor="#666666"
     borderopacity="1"
     objecttolerance="10"
     gridtolerance="10"
     guidetolerance="10"
     inkscape:pageopacity="0"
     inkscape:pageshadow="2"
     inkscape:window-width="2560"
     inkscape:window-height="1377"
     id="namedview6"
     showgrid="false"
     inkscape:zoom="9.8333333"
     inkscape:cx="12"
     inkscape:cy="12"
     inkscape:window-x="-8"
     inkscape:window-y="-8"
     inkscape:window-maximized="1"
     inkscape:current-layer="svg4" />
  <path
     d="M23.245 4l-11.245 14.374-11.219-14.374-.781.619 12 15.381 12-15.391-.755-.609z"
     id="path2" />
  <path
     style="fill:#ffffff;stroke-width:0.10169491"
     d="M 6.0508475,12.304152 C 2.8067797,8.1373608 0.14382746,4.6962793 0.13317591,4.6573043 0.10153136,4.5415141 0.70120024,4.1102193 0.80480766,4.1742522 0.85724461,4.20666 3.3818858,7.4130839 6.4151213,11.299639 c 3.0332355,3.886554 5.5471887,7.066463 5.5865617,7.066463 0.03937,0 2.577794,-3.20339 5.640935,-7.118644 3.06314,-3.9152546 5.597925,-7.1169987 5.632856,-7.1149872 0.03493,0.00201 0.196084,0.1120607 0.358119,0.2445539 l 0.29461,0.2408966 -3.243762,4.1605933 C 18.900371,11.066841 16.227966,14.500935 14.745763,16.409836 13.263559,18.318737 12.027966,19.880468 12,19.880351 11.972034,19.880249 9.2949153,16.470944 6.0508475,12.304152 Z"
     id="path12"
     inkscape:connector-curvature="0" />
</svg>
