<?xml version="1.0" encoding="utf-8"?>
<!-- Generator: Adobe Illustrator 24.1.1, SVG Export Plug-In . SVG Version: 6.00 Build 0)  -->
<svg version="1.1" id="Layer_1" xmlns="http://www.w3.org/2000/svg" xmlns:xlink="http://www.w3.org/1999/xlink" x="0px" y="0px"
	 viewBox="0 0 24 24" style="enable-background:new 0 0 24 24;" xml:space="preserve">
<style type="text/css">
	.st0{fill-rule:evenodd;clip-rule:evenodd;fill:#FFFFFF;}
</style>
<path class="st0" d="M7,9H0V2h1v5.2C2.9,3,7.1,0,12,0c6.6,0,12,5.4,12,12s-5.4,12-12,12C5.7,24,0.6,19.2,0,13h1
	c0.5,5.6,5.2,10,11,10c6.1,0,11-4.9,11-11S18.1,1,12,1C7.3,1,3.4,3.9,1.8,8H7C7,8,7,9,7,9z"/>
</svg>
