<?xml version="1.0" encoding="utf-8"?>
<!-- Generator: Adobe Illustrator 22.0.1, SVG Export Plug-In . SVG Version: 6.00 Build 0)  -->
<svg version="1.1" id="Layer_1" xmlns="http://www.w3.org/2000/svg" xmlns:xlink="http://www.w3.org/1999/xlink" x="0px" y="0px"
	 viewBox="0 0 24 24" style="enable-background:new 0 0 24 24;" xml:space="preserve">
<style type="text/css">
	.st0{fill:#636363;}
</style>
<title  id="simpleicons-snapchat-icon">Snapchat icon</title>
<path class="st0" d="M12.2,0.8c1,0,4.3,0.3,5.9,3.8c0.5,1.2,0.4,3.2,0.3,4.8v0.1c0,0.2,0,0.3,0,0.5c0.1,0,0.2,0.1,0.4,0.1
	c0.3,0,0.7-0.1,1-0.3c0.2-0.1,0.3-0.1,0.5-0.1s0.4,0,0.5,0.1c0.5,0.1,0.7,0.5,0.7,0.8c0,0.4-0.4,0.8-1.2,1.2c-0.1,0-0.2,0.1-0.3,0.1
	c-0.5,0.1-1.1,0.4-1.3,0.8c-0.1,0.2-0.1,0.5,0.1,0.9l0,0c0.1,0.1,1.5,3.5,4.8,4c0.3,0,0.4,0.3,0.4,0.5c0,0.1,0,0.1,0,0.2
	c-0.2,0.6-1.3,1-3.1,1.3c-0.1,0.1-0.1,0.4-0.2,0.6c0,0.2-0.1,0.4-0.1,0.6c-0.1,0.3-0.3,0.4-0.6,0.4l0,0c-0.1,0-0.3,0-0.5-0.1
	C19,21,18.6,21,18.1,21c-0.3,0-0.6,0-0.9,0.1c-0.6,0.1-1.1,0.5-1.7,0.9c-0.9,0.6-1.8,1.3-3.3,1.3c-0.1,0-0.1,0-0.2,0h-0.1
	c-1.5,0-2.4-0.7-3.3-1.3c-0.6-0.5-1.1-0.9-1.7-1c-0.3,0-0.6-0.1-0.9-0.1c-0.5,0-1,0.1-1.3,0.1c-0.2,0-0.4,0.1-0.5,0.1
	c-0.4,0-0.5-0.2-0.6-0.4c-0.1-0.2-0.1-0.4-0.1-0.6s-0.1-0.5-0.2-0.6c-1.9-0.2-3-0.6-3.2-1.2C0,18.3,0,18.2,0,18.2
	c0-0.2,0.2-0.5,0.4-0.5c3.3-0.5,4.7-3.9,4.8-4l0,0c0.2-0.3,0.2-0.6,0.1-0.9C5.1,12.4,4.4,12.1,4,12c-0.1,0-0.2-0.1-0.3-0.1
	c-1.1-0.4-1.3-0.9-1.2-1.3c0.1-0.5,0.7-0.8,1.2-0.8c0.1,0,0.3,0,0.4,0.1c0.4,0.2,0.8,0.3,1.1,0.3c0.2,0,0.4-0.1,0.5-0.1V9.5
	C5.4,7.8,5.3,5.8,5.9,4.6c1.5-3.5,4.9-3.8,5.9-3.8L12.2,0.8L12.2,0.8L12.2,0.8z"/>
</svg>
